# Blender 4.1.1
# www.blender.org
mtllib stone_big.mtl
o stone
v 1.662181 0.461398 -1.119557
v 0.604195 1.281750 -2.607951
v -0.889560 0.015606 -1.515092
v -1.773430 1.030794 -0.955867
v 0.267964 2.413784 0.209239
v -0.776012 1.812923 0.345406
v 1.016217 0.427042 -3.367058
v 0.596155 -0.020506 -0.072062
v -0.986989 1.888559 -1.146769
v 0.683867 0.089729 -2.776255
v 1.201824 1.095619 -0.176040
v -0.894004 0.495719 -2.864648
v -0.848328 1.466181 -2.845507
v 2.258401 1.462420 -1.852244
v -1.407309 1.035769 -0.265964
v 0.752390 2.823876 -1.267204
v 1.010044 1.657601 0.644223
v 0.181197 0.640134 0.407277
v 1.573146 2.435933 -1.515299
v 0.881458 1.211975 -3.483523
v 1.948270 1.723988 -0.842284
vn 0.7611 0.0346 -0.6477
vn -0.8344 0.3313 0.4404
vn -0.3414 0.0346 -0.9393
vn 0.7750 -0.4220 0.4703
vn 0.2909 -0.4354 0.8519
vn 0.5494 0.7442 0.3800
vn 0.1319 0.9906 -0.0372
vn 0.0786 0.6498 -0.7561
vn -0.6045 0.7867 0.1253
vn 0.3140 0.5003 -0.8069
vn 0.7997 -0.3915 0.4552
vn -0.4211 -0.6909 0.5876
vn -0.1162 0.4071 0.9059
vn -0.4510 -0.7737 0.4450
vn -0.4667 0.8797 0.0912
vn -0.1766 -0.8087 -0.5611
vn 0.7066 -0.6808 -0.1927
vn -0.6138 -0.7167 0.3309
vn 0.8305 0.5452 0.1138
vn -0.0632 0.9931 -0.0991
vn 0.8953 -0.2791 0.3472
vn 0.0148 -0.9991 -0.0402
vn -0.4720 0.8457 -0.2488
vn -0.3009 -0.1963 0.9332
vn 0.2026 0.6313 -0.7486
vn 0.5384 0.7497 0.3849
vn -0.2183 -0.9197 -0.3265
vn -0.9016 0.0509 -0.4296
vn 0.7471 -0.3224 0.5813
vn -0.7911 -0.5771 -0.2027
vn 0.3915 -0.9199 -0.0248
vn -0.2562 -0.1848 -0.9488
vn 0.4892 0.7213 0.4904
vn -0.7430 0.6327 -0.2180
vt 0.377710 0.583333
vt 0.375000 0.666667
vt 0.124296 0.623804
vt 0.625000 0.661290
vt 0.498075 0.673821
vt 0.440055 0.577533
vt 0.481935 0.083333
vt 0.484623 0.166667
vt 0.380304 0.166667
vt 0.515349 0.833333
vt 0.579961 0.904966
vt 0.460291 0.889945
vt 0.472360 0.750000
vt 0.388070 0.776140
vt 0.514923 1.000000
vt 0.410916 0.250000
vt 0.375000 0.258704
vt 0.600487 0.285916
vt 0.385231 0.361340
vt 0.378477 0.462124
vt 0.625000 0.457055
vt 0.351092 0.750000
vt 0.125000 0.750000
vt 0.750000 0.500000
vt 0.625970 0.597548
vt 0.625000 0.500000
vt 0.412876 1.000000
vt 0.375000 0.916667
vt 0.876731 0.567294
vt 0.387289 0.000000
vt 0.375000 0.083333
vt 0.125000 0.500000
vt 0.364098 0.500000
vt 0.625000 0.750000
vt 0.625000 0.873804
vt 0.616296 1.000000
vt 0.625000 0.738415
vt 0.865773 0.737177
vt 0.582411 0.226768
vt 0.500000 0.250000
vt 0.375000 0.833333
vt 0.557706 0.000000
vt 0.623409 0.088710
vt 0.613415 0.750000
s 0
usemtl stone
f 7/1/1 20/2/1 14/3/1
f 4/4/2 15/5/2 6/6/2
f 12/7/3 13/8/3 20/9/3
f 11/10/4 21/11/4 17/12/4
f 8/13/5 17/12/5 18/14/5
f 21/11/6 16/15/6 17/12/6
f 13/8/7 2/16/7 20/9/7
f 19/17/8 2/18/8 16/19/8
f 6/6/9 5/20/9 9/21/9 4/4/9
f 14/3/10 2/22/10 19/23/10
f 8/13/11 11/10/11 17/12/11
f 15/24/12 8/25/12 18/26/12
f 17/12/13 5/27/13 6/28/13
f 3/29/14 8/25/14 15/24/14
f 9/21/15 5/20/15 16/19/15
f 10/30/16 12/7/16 7/31/16
f 14/3/17 1/32/17 10/33/17 7/1/17
f 15/5/18 4/4/18 3/34/18
f 21/11/19 14/35/19 19/36/19
f 14/3/20 20/2/20 2/22/20
f 1/37/21 14/35/21 21/11/21
f 8/25/22 3/29/22 10/38/22
f 13/8/23 9/39/23 16/40/23
f 6/28/24 15/41/24 18/14/24 17/12/24
f 13/8/25 16/40/25 2/16/25
f 17/12/26 16/15/26 5/27/26
f 10/30/27 3/42/27 12/7/27
f 13/8/28 12/7/28 4/43/28
f 11/10/29 8/13/29 1/44/29 21/11/29
f 3/42/30 4/43/30 12/7/30
f 8/25/31 10/38/31 1/37/31
f 7/31/32 12/7/32 20/9/32
f 21/11/33 19/36/33 16/15/33
f 9/39/34 13/8/34 4/43/34
