# Blender 4.1.1
# www.blender.org
mtllib tree2.mtl
o tree2
v 1.536267 4.833873 -0.083762
v 2.744101 6.819444 3.428462
v -1.752687 6.871399 3.400908
v 0.611758 6.552202 -3.447399
v 3.333328 6.524777 -1.848645
v 4.299414 8.271359 1.003381
v -0.136868 5.258068 2.168508
v 3.830871 6.338816 0.210316
v -1.559602 5.114200 0.210316
v -2.195863 6.338816 -1.747882
v 2.829021 8.335117 -0.986994
v 0.499377 8.170433 4.126736
v -3.404227 7.206110 0.868395
v -1.802639 7.583992 -2.958133
v -3.225365 7.583992 -0.999906
v 0.905484 8.057276 -3.644862
v -2.832118 8.829167 0.210316
v -0.530128 8.829170 -2.958113
v 1.650679 9.105878 3.473827
v 1.351739 10.062077 -0.488495
v -1.552088 9.136910 2.888430
v -0.810009 8.868223 -0.780746
v 0.946671 0.003328 -0.400658
v 0.675353 6.416692 0.585024
v 0.429648 0.002906 1.070906
v 0.844132 6.422189 1.208366
v -0.975706 0.003307 0.398103
v 0.256461 6.411321 1.088919
v -0.370804 0.002607 -0.868098
v 0.334431 3.609615 -0.076718
v 0.383908 4.172996 0.061312
v -0.050388 4.023183 0.188804
v -0.278662 6.428874 -0.945348
vn 0.4985 -0.8168 0.2903
vn -0.0773 -0.9887 0.1288
vn -0.1216 -0.8971 -0.4249
vn 0.8693 -0.3528 0.3462
vn -0.0109 -0.4733 0.8808
vn -0.3913 -0.5749 -0.7186
vn 0.4940 -0.2072 -0.8444
vn -0.2315 -0.0820 -0.9694
vn 0.6971 0.4571 -0.5523
vn 0.1793 0.8188 -0.5454
vn 0.6180 0.6544 -0.4356
vn 0.5865 0.6436 -0.4917
vn -0.4741 0.8772 -0.0767
vn -0.4611 0.8733 -0.1572
vn -0.0609 0.9945 -0.0852
vn -0.0339 0.9710 0.2369
vn 0.4433 0.8784 0.1785
vn 0.0001 -1.0000 0.0001
vn -0.2824 0.2886 -0.9148
vn -0.6957 0.7110 -0.1022
vn -0.3208 0.7103 -0.6266
vn -0.9460 0.3232 -0.0252
vn -0.8313 0.4339 0.3475
vn -0.4185 0.2355 0.8771
vn -0.1275 0.6684 0.7328
vn 0.6981 0.3211 0.6400
vn -0.4246 0.8512 -0.3085
vn -0.7715 -0.3011 -0.5605
vn -0.8096 -0.5554 -0.1898
vn -0.8091 0.1969 0.5537
vn 0.3820 0.1646 0.9094
vn 0.8041 0.0482 -0.5925
vn 0.9184 0.3466 -0.1906
vn 0.2836 -0.8201 -0.4969
vn -0.2169 -0.8578 -0.4660
vn -0.7643 -0.6284 -0.1447
vn -0.6519 -0.6802 0.3352
vn -0.4747 -0.7828 0.4024
vn 0.5550 -0.8057 -0.2069
vn -0.0119 -0.6145 0.7888
vn 0.3020 -0.8706 0.3883
vn -0.0177 0.9998 -0.0040
vn -0.7299 0.3212 -0.6034
vn -0.3525 0.2559 -0.9001
vn 0.9413 -0.0679 0.3307
vn 0.3310 0.1400 -0.9332
vn -0.2570 0.2512 -0.9332
vn -0.9200 0.1940 -0.3405
vn -0.3389 0.2644 -0.9029
vn -0.3693 -0.0126 0.9292
vn 0.9619 0.0808 -0.2612
vn 0.4426 0.1545 -0.8833
vn 0.8747 0.0415 -0.4828
vn -0.7528 -0.3378 -0.5649
vn 0.1134 0.4325 0.8945
vt 0.771940 0.187502
vt 0.667759 0.062777
vt 0.636363 0.157461
vt 0.090909 0.000000
vt 0.045454 0.078731
vt 0.136363 0.078731
vt 0.272727 0.000000
vt 0.227273 0.078731
vt 0.414866 0.157790
vt 0.663486 0.284157
vt 0.938112 0.207728
vt 0.863635 0.236191
vt 0.272727 0.157461
vt 0.318182 0.236191
vt 0.545454 0.157461
vt 0.429801 0.263877
vt 0.569120 0.273930
vt 0.363636 0.314921
vt 0.387012 0.431892
vt 0.531415 0.426705
vt 0.304620 0.370163
vt 0.240834 0.370163
vt 0.101143 0.332647
vt 0.181818 0.472382
vt 0.181818 0.314921
vt 0.953171 0.324606
vt 0.819326 0.316904
vt 0.909090 0.472382
vt 0.817036 0.316904
vt 0.721106 0.461701
vt 0.665678 0.455073
vt 0.947114 0.353535
vt 0.834829 0.045137
vt 0.537620 0.183320
vt 0.227273 0.236191
vt 0.154106 0.205461
vt 0.045117 0.194655
vt 0.456969 0.004198
vt 0.863635 0.078731
vt 0.782456 0.061878
vt 0.307763 0.435272
vt 0.047078 0.160487
vt 0.389803 0.116294
vt 0.315933 0.999927
vt 0.062166 1.000000
vt 0.125000 0.813900
vt 0.000000 0.825753
vt 0.628175 1.000006
vt 0.562482 0.500000
vt 0.826261 0.500000
vt 1.000000 0.781775
vt 1.000000 0.500000
vt 1.000000 0.825753
vt 0.930067 0.999948
vt 0.062109 0.500000
vt 0.299114 0.500000
vt 0.000000 0.781775
vt 1.000000 0.814223
vt 0.058042 0.807562
s 0
usemtl wood
f 29/31/18 23/32/18 25/33/18 27/34/18
f 24/41/42 28/42/42 26/43/42
f 28/44/43 24/45/43 32/46/43
f 24/45/44 31/47/44 32/46/44
f 26/48/45 25/49/45 23/50/45
f 30/51/46 23/50/46 29/52/46
f 31/53/47 24/54/47 30/51/47
f 32/46/48 29/55/48 27/56/48 28/44/48
f 32/46/49 30/57/49 29/55/49
f 28/44/50 27/56/50 25/49/50 26/48/50
f 24/54/51 26/48/51 23/50/51
f 30/51/52 24/54/52 23/50/52
f 31/53/53 30/51/53 33/58/53
f 30/57/54 32/46/54 33/59/54
f 32/46/55 31/47/55 33/59/55
usemtl leaves
f 2/1/1 1/2/1 8/3/1
f 1/4/2 7/5/2 9/6/2
f 1/7/3 9/8/3 4/9/3
f 2/1/4 8/3/4 6/10/4
f 3/11/5 2/1/5 12/12/5
f 4/9/6 10/13/6 14/14/6
f 5/15/7 4/9/7 16/16/7
f 4/9/8 14/14/8 16/16/8
f 5/15/9 16/16/9 11/17/9
f 16/16/10 18/18/10 20/19/10
f 6/10/11 11/17/11 20/20/11
f 11/17/12 16/16/12 20/20/12
f 20/19/13 18/18/13 22/21/13
f 22/22/14 21/23/14 20/24/14
f 22/22/15 17/25/15 21/23/15
f 21/26/16 19/27/16 20/28/16
f 19/29/17 6/10/17 20/30/17
f 16/16/19 14/14/19 18/18/19
f 14/14/20 22/21/20 18/18/20
f 15/35/21 17/25/21 22/21/21
f 15/35/22 13/36/22 17/25/22
f 13/36/23 21/23/23 17/25/23
f 3/11/24 12/12/24 21/26/24
f 12/12/25 19/29/25 21/26/25
f 2/1/26 6/10/26 19/29/26
f 14/14/27 15/35/27 22/21/27
f 14/14/28 10/13/28 15/35/28
f 10/13/29 13/36/29 15/35/29
f 13/36/30 3/37/30 21/23/30
f 12/12/31 2/1/31 19/29/31
f 6/10/32 8/3/32 11/17/32
f 8/3/33 5/15/33 11/17/33
f 1/38/34 4/9/34 5/15/34
f 4/9/35 9/8/35 10/13/35
f 9/8/36 13/36/36 10/13/36
f 9/6/37 3/37/37 13/36/37
f 9/6/38 7/5/38 3/37/38
f 8/3/39 1/2/39 5/15/39
f 7/39/40 2/1/40 3/11/40
f 7/39/41 1/40/41 2/1/41
