# Blender 4.1.1
# www.blender.org
mtllib tree3.mtl
o tree3
v 0.009731 -0.015725 -1.294354
v 0.368241 6.859162 -0.501340
v 0.875757 -0.015725 -0.794354
v 0.368241 6.859162 -0.087368
v 0.875757 -0.015725 0.205646
v 0.009731 6.859162 0.119618
v 0.009731 -0.015725 0.705646
v -0.348779 6.859162 -0.087368
v -0.856294 -0.015725 0.205646
v -0.248167 6.912000 -0.629373
v -0.856294 -0.015725 -0.794354
v -0.002633 5.210631 -4.628686
v -0.002633 7.210631 -2.856750
v 3.049974 5.210631 -3.364253
v 1.797027 7.210631 -2.111307
v 4.314407 5.210631 -0.311646
v 2.542471 7.210631 -0.311646
v 3.049974 5.210631 2.740961
v 1.797027 7.210631 1.488014
v -0.002633 5.210631 4.005393
v -0.002633 7.210631 2.233458
v -3.055240 5.210631 2.740961
v -1.802293 7.210631 1.488014
v -4.319672 5.210631 -0.311646
v -2.547737 7.210631 -0.311646
v -3.055240 5.210631 -3.364253
v -1.802293 7.210631 -2.111307
v -0.002633 7.194812 -4.158688
v -0.002633 8.573980 -3.004961
v 2.717635 7.194812 -3.031915
v 1.901828 8.573980 -2.216107
v 3.844408 7.194812 -0.311646
v 2.690682 8.573980 -0.311647
v 2.717635 7.194812 2.408621
v 1.901828 8.573980 1.592814
v -0.002633 7.194812 3.535395
v -0.002633 8.573980 2.381669
v -2.722902 7.194812 2.408621
v -1.907094 8.573980 1.592814
v -3.849674 7.194812 -0.311646
v -2.695948 8.573980 -0.311647
v -2.722902 7.194812 -3.031915
v -1.907094 8.573980 -2.216107
v -0.002633 8.569488 -3.632865
v 2.345822 8.569488 -2.660101
v 0.561985 9.928299 -2.085755
v 3.318585 8.569488 -0.311647
v 1.843825 9.870545 -0.311647
v 2.345822 8.569488 2.036808
v -0.002633 8.569488 3.009572
v 0.561985 9.928299 1.462462
v -2.351088 8.569488 2.036808
v -1.308276 9.870545 0.993996
v -3.323851 8.569488 -0.311647
v -2.351088 8.569488 -2.660101
v -1.712705 9.897879 -1.019981
v 2.230576 9.982307 -1.466566
v 0.381445 11.082732 -1.518474
v 1.267863 11.028348 -0.311647
v 1.760106 9.901337 1.451092
v -0.947244 9.967563 1.968850
v 0.385955 11.069614 0.909352
v -2.495522 9.901337 -0.311647
v -1.165747 9.966573 -2.560702
v -1.262567 11.120640 -0.311647
v 0.003542 10.985104 -1.958909
v 1.566215 10.985104 -0.823561
v 0.969326 10.985104 1.013473
v 0.003541 13.098073 -0.315817
v -0.962244 10.985104 1.013473
v -1.559132 10.985104 -0.823561
vn 0.3912 0.0853 -0.9163
vn -0.2961 -0.6334 0.7149
vn 0.7149 -0.6334 0.2961
vn 0.7310 -0.6115 0.3028
vn -0.2855 -0.6660 0.6891
vn -0.2855 -0.6660 -0.6891
vn 0.6811 -0.6756 0.2821
vn -0.2761 -0.4232 0.8630
vn -0.1677 -0.5702 -0.8042
vn 0.6396 -0.6468 -0.4155
vn 0.6540 -0.6613 0.3675
vn -0.4975 -0.5325 0.6848
vn -0.8050 -0.5325 -0.2616
vn -0.0000 -0.5325 -0.8464
vn 0.8050 -0.5325 -0.2616
vn 0.4975 -0.5325 0.6848
vn 0.9973 0.0736 -0.0000
vn 0.4986 0.0736 0.8637
vn -0.4986 0.0736 0.8637
vn -0.0000 -1.0000 -0.0000
vn -0.9949 0.0798 -0.0622
vn -0.4990 0.0644 -0.8642
vn 0.0276 0.9985 0.0477
vn -0.7149 -0.6334 0.2961
vn -0.7149 -0.6334 -0.2961
vn -0.2961 -0.6334 -0.7149
vn 0.2961 -0.6334 -0.7149
vn 0.7149 -0.6334 -0.2961
vn 0.2961 -0.6334 0.7149
vn -0.3028 -0.6115 0.7310
vn -0.0000 1.0000 -0.0000
vn -0.7310 -0.6115 0.3028
vn -0.7310 -0.6115 -0.3028
vn -0.3028 -0.6115 -0.7310
vn 0.3028 -0.6115 -0.7310
vn 0.7310 -0.6115 -0.3028
vn 0.3028 -0.6115 0.7310
vn -0.5705 -0.7640 0.3013
vn -0.5705 -0.7640 -0.3013
vn 0.2244 -0.7461 -0.6269
vn 0.6196 -0.7589 -0.2004
vn 0.0020 -1.0000 -0.0046
vn 0.2545 -0.7846 0.5654
vn -0.7003 -0.6739 -0.2353
vn -0.4905 -0.8090 0.3238
vn -0.0364 -0.9993 -0.0053
vn 0.3169 -0.8280 -0.4625
vn 0.3072 -0.8412 0.4449
vn -0.0045 0.9999 0.0090
vt 0.833333 0.500000
vt 1.000000 0.500000
vt 1.000000 1.000000
vt 0.833333 1.000000
vt 0.875000 0.500000
vt 0.875000 1.000000
vt 0.125000 0.500000
vt 0.250000 0.500000
vt 0.250000 1.000000
vt 0.125000 1.000000
vt 0.951412 1.000000
vt 0.625000 0.500000
vt 0.548588 1.000000
vt 0.500000 0.500000
vt 0.187500 1.000000
vt 0.951254 1.000000
vt 0.826415 0.500000
vt 0.548585 1.000000
vt 0.437500 0.500000
vt 0.248579 1.000000
vt 0.076514 0.500000
vt 0.750000 0.490000
vt 0.750000 0.250000
vt 0.978254 0.324164
vt 0.891068 0.055836
vt 0.608931 0.055836
vt 0.521746 0.324164
vt 0.666667 0.500000
vt 0.666667 1.000000
vt 0.500000 0.500000
vt 0.500000 1.000000
vt 0.333333 0.500000
vt 0.333333 1.000000
vt 0.457846 0.130000
vt 0.457846 0.370000
vt 0.250000 0.490000
vt 0.042154 0.370000
vt 0.042154 0.130000
vt 0.250000 0.010000
vt 0.105813 0.500000
vt 0.166667 1.000000
vt -0.000000 1.000000
vt 0.750000 0.010000
vt 0.542154 0.130000
vt 0.618043 0.413814
vt 0.957846 0.370000
vt 0.957846 0.130000
vt 0.750000 1.000000
vt 0.750000 0.500000
vt 0.625000 1.000000
vt 0.500000 1.000000
vt 0.375000 0.500000
vt 0.375000 1.000000
vt 0.510000 0.250000
vt 0.580294 0.080294
vt 0.919706 0.080294
vt 0.990000 0.250000
vt 0.919706 0.419706
vt 0.580294 0.419706
vt 0.000000 0.500000
vt 0.000000 1.000000
vt 0.419706 0.080294
vt 0.250000 0.010000
vt 0.080294 0.080294
vt 0.010000 0.250000
vt 0.080294 0.419706
vt 0.419706 0.419706
vt 0.490000 0.250000
vt 0.815965 0.037324
vt 0.815966 0.462676
vt 0.545147 0.334853
vt 0.815961 0.037322
vt 0.816180 0.462587
vt 0.556597 0.251929
vt 0.165147 0.045147
vt 0.146122 0.446972
vt 0.447028 0.353744
vt 0.478254 0.324164
vt 0.391068 0.055836
vt 0.108931 0.055836
vt 0.021746 0.324164
s 0
usemtl leaves
f 14/5/2 15/6/2 13/3/2 12/2/2
f 26/7/3 27/10/3 25/9/3 24/8/3
f 42/7/4 43/10/4 41/9/4 40/8/4
f 46/11/5 44/2/5 45/5/5
f 49/12/6 50/14/6 51/13/6
f 56/15/7 54/8/7 55/7/7
f 58/16/8 64/2/8 57/17/8
f 60/12/9 61/19/9 62/18/9
f 65/20/10 61/19/10 63/8/10
f 65/20/11 63/8/11 64/21/11
f 66/22/12 67/24/12 69/23/12
f 67/24/13 68/25/13 69/23/13
f 68/25/14 70/26/14 69/23/14
f 70/26/15 71/27/15 69/23/15
f 71/27/16 66/22/16 69/23/16
f 17/48/24 15/6/24 14/5/24 16/49/24
f 18/12/25 19/50/25 17/48/25 16/49/25
f 21/51/26 19/50/26 18/12/26 20/14/26
f 22/52/27 23/53/27 21/51/27 20/14/27
f 24/8/28 25/9/28 23/53/28 22/52/28
f 25/54/20 27/59/20 13/22/20 15/58/20 17/57/20 19/56/20 21/43/20 23/55/20
f 12/60/29 13/61/29 27/10/29 26/7/29
f 30/5/30 31/6/30 29/3/30 28/2/30
f 18/62/31 16/68/31 14/67/31 12/36/31 26/66/31 24/65/31 22/64/31 20/63/31
f 33/48/32 31/6/32 30/5/32 32/49/32
f 34/12/33 35/50/33 33/48/33 32/49/33
f 37/51/34 35/50/34 34/12/34 36/14/34
f 38/52/35 39/53/35 37/51/35 36/14/35
f 41/9/36 39/53/36 38/52/36 40/8/36
f 41/54/20 43/59/20 29/22/20 31/58/20 33/57/20 35/56/20 37/43/20 39/55/20
f 29/61/37 43/10/37 42/7/37 28/60/37
f 48/48/38 46/11/38 45/5/38 47/49/38
f 34/62/31 32/68/31 30/67/31 28/36/31 42/66/31 40/65/31 38/64/31 36/63/31
f 49/12/39 51/13/39 48/48/39 47/49/39
f 52/52/40 53/53/40 51/13/40 50/14/40
f 54/8/41 56/15/41 53/53/41 52/52/41
f 51/69/42 53/55/42 56/71/42 46/70/42 48/57/42
f 46/61/43 56/15/43 55/7/43 44/60/43
f 60/12/44 62/18/44 59/48/44 57/17/44
f 49/62/31 47/68/31 45/67/31 44/36/31 55/66/31 54/65/31 52/64/31 50/63/31
f 57/17/45 59/48/45 58/16/45
f 62/72/46 65/74/46 58/73/46 59/57/46
f 62/18/47 61/19/47 65/20/47
f 64/21/48 58/61/48 65/20/48
f 60/62/49 57/77/49 64/76/49 63/65/49 61/75/49
f 67/78/31 66/36/31 71/81/31 70/80/31 68/79/31
usemtl wood
f 2/1/1 3/4/1 1/3/1 10/2/1
f 4/28/17 5/29/17 3/4/17 2/1/17
f 6/30/18 7/31/18 5/29/18 4/28/18
f 8/32/19 9/33/19 7/31/19 6/30/19
f 5/34/20 7/39/20 9/38/20 11/37/20 1/36/20 3/35/20
f 10/40/21 11/41/21 9/33/21 8/32/21
f 11/41/22 10/40/22 1/42/22
f 6/43/23 4/47/23 2/46/23 10/45/23 8/44/23
